<svg width="24" height="24" viewBox="0 0 24 24" fill="none" xmlns="http://www.w3.org/2000/svg">
<path d="M15.2002 4.81987L13.8098 2.40996C13.2598 1.44996 12.0298 1.11996 11.0798 1.67996C10.8098 1.82996 10.5798 2.04996 10.4098 2.30996L7.16982 7.90996L8.89982 8.90996L12.0798 3.41996L13.7363 6.28376L15.2002 4.81987Z" fill="currentColor"/>
<path d="M5.91265 14.1074L5.89982 14.1L5.87252 14.1475L1.68253 18.3375C1.60635 17.8941 1.67809 17.4219 1.91982 17L4.16982 13.1L1.56982 11.6L7.03982 10.14L7.63906 12.381L5.91265 14.1074Z" fill="currentColor"/>
<path d="M7.97983 20L9.97983 18H9.99982V20H7.97983Z" fill="currentColor"/>
<path d="M16.7126 11.2672L18.1848 9.79495L22.2798 17.11C22.4198 17.38 22.4998 17.69 22.4998 18C22.4998 19.11 21.6098 20 20.4998 20H15.9998V23L11.9998 19L15.9998 15V18H20.4998L16.7126 11.2672Z" fill="currentColor"/>
<path d="M21.8618 0.205322L23.795 2.13852L1.97666 23.9569L0.043457 22.0237L21.8618 0.205322Z" fill="currentColor"/>
</svg>
