<svg width="132" height="80" viewBox="0 0 132 80" fill="none" xmlns="http://www.w3.org/2000/svg">
<g clip-path="url(#clip0_46_7)">
<rect width="132" height="80" fill="#E2E8F0"/>
<rect y="68" width="132" height="12" fill="#0F172A"/>
<rect x="12" width="120" height="8" fill="#0F172A"/>
<rect width="12" height="8" fill="#0550E6"/>
<rect x="2.5" y="70.5" width="7" height="7" rx="1.5" fill="#313C4B" stroke="#3F4B5B"/>
<rect x="12.5" y="70.5" width="7" height="7" rx="1.5" fill="#313C4B" stroke="#3F4B5B"/>
<rect x="22.5" y="70.5" width="7" height="7" rx="1.5" fill="#313C4B" stroke="#3F4B5B"/>
<rect x="32.5" y="70.5" width="7" height="7" rx="1.5" fill="#313C4B" stroke="#3F4B5B"/>
<rect x="42.5" y="70.5" width="7" height="7" rx="1.5" fill="#313C4B" stroke="#3F4B5B"/>
<rect x="52.5" y="70.5" width="7" height="7" rx="1.5" fill="#313C4B" stroke="#3F4B5B"/>
<rect x="62.5" y="70.5" width="7" height="7" rx="1.5" fill="#313C4B" stroke="#3F4B5B"/>
<rect x="72.5" y="70.5" width="7" height="7" rx="1.5" fill="#313C4B" stroke="#3F4B5B"/>
<rect x="82.5" y="70.5" width="7" height="7" rx="1.5" fill="#313C4B" stroke="#3F4B5B"/>
<rect x="92.5" y="70.5" width="7" height="7" rx="1.5" fill="#313C4B" stroke="#3F4B5B"/>
<rect x="102.5" y="70.5" width="7" height="7" rx="1.5" fill="#313C4B" stroke="#3F4B5B"/>
<rect x="112.5" y="70.5" width="7" height="7" rx="1.5" fill="#313C4B" stroke="#3F4B5B"/>
<rect x="122.5" y="70.5" width="7" height="7" rx="1.5" fill="#313C4B" stroke="#3F4B5B"/>
</g>
<defs>
<clipPath id="clip0_46_7">
<rect width="132" height="80" fill="white"/>
</clipPath>
</defs>
</svg>
