<svg xmlns="http://www.w3.org/2000/svg" xmlns:xlink="http://www.w3.org/1999/xlink" version="1.1" id="Ebene_1" x="0px" y="0px" viewBox="0 0 682.9 249.4" style="enable-background:new 0 0 682.9 249.4;" xml:space="preserve">
<polyline points="169.3,198.2 169.3,158.7 177.3,158.7 177.3,176.2 193.4,158.7 204.2,158.7 189.3,174.1 205,198.2 194.7,198.2   183.8,179.7 177.3,186.3 177.3,198.2 169.3,198.2 "/>
<path d="M215.2,178.3l-6.9-1.2c0.8-2.8,2.1-4.8,4-6.2s4.7-2,8.4-2c3.4,0,5.9,0.4,7.6,1.2c1.7,0.8,2.8,1.8,3.5,3.1  c0.7,1.2,1,3.5,1,6.8l-0.1,8.9c0,2.5,0.1,4.4,0.4,5.6c0.2,1.2,0.7,2.5,1.4,3.8H227c-0.2-0.5-0.4-1.3-0.7-2.2  c-0.1-0.4-0.2-0.7-0.3-0.9c-1.3,1.3-2.7,2.2-4.2,2.8c-1.5,0.6-3.1,0.9-4.7,0.9c-3,0-5.3-0.8-7-2.4c-1.7-1.6-2.6-3.6-2.6-6.1  c0-1.6,0.4-3.1,1.2-4.3c0.8-1.3,1.9-2.2,3.3-2.9c1.4-0.7,3.4-1.3,6-1.8c3.5-0.7,6-1.3,7.4-1.9v-0.8c0-1.5-0.4-2.5-1.1-3.1  c-0.7-0.6-2.1-0.9-4.1-0.9c-1.3,0-2.4,0.3-3.2,0.8C216.3,176.1,215.7,177,215.2,178.3 M225.4,184.5c-1,0.3-2.5,0.7-4.6,1.2  s-3.5,0.9-4.1,1.3c-1,0.7-1.5,1.6-1.5,2.7c0,1.1,0.4,2,1.2,2.8c0.8,0.8,1.8,1.2,3,1.2c1.4,0,2.7-0.4,3.9-1.4  c0.9-0.7,1.5-1.5,1.8-2.5c0.2-0.6,0.3-1.9,0.3-3.7V184.5z"/>
<path d="M266.9,198.2h-7.6v-14.6c0-3.1-0.2-5.1-0.5-6c-0.3-0.9-0.9-1.6-1.6-2.1c-0.7-0.5-1.6-0.8-2.6-0.8c-1.3,0-2.5,0.4-3.5,1.1  c-1,0.7-1.8,1.7-2.1,2.9c-0.4,1.2-0.6,3.4-0.6,6.6v13h-7.6v-28.7h7v4.2c2.5-3.2,5.7-4.9,9.5-4.9c1.7,0,3.2,0.3,4.6,0.9  c1.4,0.6,2.4,1.4,3.1,2.3c0.7,0.9,1.2,2,1.5,3.2c0.3,1.2,0.4,2.9,0.4,5.1V198.2"/>
<path d="M288.2,169.6v6h-5.2v11.6c0,2.3,0,3.7,0.1,4.1c0.1,0.4,0.3,0.7,0.7,1c0.4,0.3,0.8,0.4,1.3,0.4c0.7,0,1.7-0.2,3.1-0.7  l0.6,5.9c-1.8,0.8-3.8,1.1-6,1.1c-1.4,0-2.6-0.2-3.7-0.7c-1.1-0.5-1.9-1.1-2.4-1.8c-0.5-0.7-0.9-1.7-1.1-3c-0.2-0.9-0.2-2.7-0.2-5.3  v-12.5H272v-6h3.5v-5.7l7.6-4.4v10.1H288.2"/>
<path d="M292.2,183.5c0-2.5,0.6-5,1.9-7.3c1.2-2.4,3-4.2,5.3-5.4c2.3-1.2,4.8-1.9,7.6-1.9c4.3,0,7.9,1.4,10.7,4.2  c2.8,2.8,4.2,6.4,4.2,10.7c0,4.3-1.4,7.9-4.2,10.8c-2.8,2.9-6.3,4.3-10.6,4.3c-2.6,0-5.1-0.6-7.5-1.8c-2.4-1.2-4.2-2.9-5.4-5.2  C292.9,189.6,292.2,186.8,292.2,183.5 M300,183.9c0,2.8,0.7,5,2,6.5c1.3,1.5,3,2.3,5,2.3s3.6-0.8,5-2.3c1.3-1.5,2-3.7,2-6.6  c0-2.8-0.7-5-2-6.5c-1.3-1.5-3-2.3-5-2.3s-3.6,0.8-5,2.3C300.7,178.9,300,181.1,300,183.9z"/>
<path d="M354.4,198.2h-7.6v-14.6c0-3.1-0.2-5.1-0.5-6c-0.3-0.9-0.8-1.6-1.6-2.1c-0.7-0.5-1.6-0.8-2.6-0.8c-1.3,0-2.5,0.4-3.5,1.1  c-1,0.7-1.8,1.7-2.1,2.9c-0.4,1.2-0.6,3.4-0.6,6.6v13h-7.6v-28.7h7v4.2c2.5-3.2,5.7-4.9,9.4-4.9c1.7,0,3.2,0.3,4.6,0.9  c1.4,0.6,2.4,1.4,3.1,2.3c0.7,0.9,1.2,2,1.5,3.2c0.3,1.2,0.4,2.9,0.4,5.1V198.2"/>
<path d="M378.5,158.7h15.8c3.1,0,5.5,0.1,7,0.4c1.5,0.3,2.9,0.8,4.1,1.6c1.2,0.8,2.2,1.9,3,3.3c0.8,1.4,1.2,2.9,1.2,4.6  c0,1.9-0.5,3.6-1.5,5.1c-1,1.5-2.4,2.7-4.1,3.5c2.4,0.7,4.3,1.9,5.6,3.6c1.3,1.7,1.9,3.7,1.9,6c0,1.8-0.4,3.6-1.3,5.3  c-0.8,1.7-2,3.1-3.4,4.1c-1.4,1-3.2,1.6-5.4,1.9c-1.3,0.1-4.5,0.2-9.6,0.3h-13.5V158.7 M386.5,165.2v9.2h5.2c3.1,0,5,0,5.8-0.1  c1.4-0.2,2.4-0.6,3.2-1.4c0.8-0.8,1.2-1.8,1.2-3.1c0-1.2-0.3-2.2-1-3c-0.7-0.8-1.7-1.2-3-1.4c-0.8-0.1-3.1-0.1-6.8-0.1H386.5z   M386.5,181v10.6h7.4c2.9,0,4.7-0.1,5.5-0.2c1.2-0.2,2.2-0.7,2.9-1.6c0.7-0.8,1.1-2,1.1-3.4c0-1.2-0.3-2.2-0.9-3  c-0.6-0.8-1.4-1.4-2.5-1.8c-1.1-0.4-3.5-0.6-7.1-0.6H386.5z"/>
<path d="M424.5,178.3l-6.9-1.2c0.8-2.8,2.1-4.8,4-6.2c1.9-1.3,4.7-2,8.4-2c3.4,0,5.9,0.4,7.6,1.2c1.7,0.8,2.8,1.8,3.5,3.1  c0.7,1.2,1,3.5,1,6.8l-0.1,8.9c0,2.5,0.1,4.4,0.4,5.6s0.7,2.5,1.4,3.8h-7.5c-0.2-0.5-0.4-1.3-0.7-2.2c-0.1-0.4-0.2-0.7-0.3-0.9  c-1.3,1.3-2.7,2.2-4.2,2.8c-1.5,0.6-3.1,0.9-4.7,0.9c-3,0-5.3-0.8-7-2.4c-1.7-1.6-2.6-3.6-2.6-6.1c0-1.6,0.4-3.1,1.2-4.3  c0.8-1.3,1.9-2.2,3.3-2.9c1.4-0.7,3.4-1.3,6-1.8c3.5-0.7,6-1.3,7.4-1.9v-0.8c0-1.5-0.4-2.5-1.1-3.1c-0.7-0.6-2.1-0.9-4.1-0.9  c-1.4,0-2.4,0.3-3.2,0.8C425.6,176.1,425,177,424.5,178.3 M434.7,184.5c-1,0.3-2.5,0.7-4.6,1.2c-2.1,0.4-3.5,0.9-4.1,1.3  c-1,0.7-1.5,1.6-1.5,2.7c0,1.1,0.4,2,1.2,2.8c0.8,0.8,1.8,1.2,3,1.2c1.4,0,2.7-0.4,3.9-1.4c0.9-0.7,1.5-1.5,1.8-2.5  c0.2-0.6,0.3-1.9,0.3-3.7V184.5z"/>
<path d="M447.4,190.1l7.6-1.2c0.3,1.5,1,2.6,2,3.4s2.4,1.1,4.2,1.1c2,0,3.4-0.4,4.4-1.1c0.7-0.5,1-1.2,1-2c0-0.6-0.2-1.1-0.5-1.4  c-0.4-0.4-1.2-0.7-2.5-1c-6.1-1.3-10-2.6-11.6-3.7c-2.3-1.5-3.4-3.7-3.4-6.5c0-2.5,1-4.6,2.9-6.3c2-1.7,5-2.5,9.1-2.5  c3.9,0,6.8,0.6,8.7,1.9c1.9,1.3,3.2,3.2,3.9,5.7l-7.2,1.3c-0.3-1.1-0.9-2-1.7-2.6c-0.9-0.6-2.1-0.9-3.7-0.9c-2,0-3.4,0.3-4.3,0.8  c-0.6,0.4-0.9,0.9-0.9,1.5c0,0.5,0.3,1,0.8,1.4c0.7,0.5,3,1.2,7.1,2.1c4,0.9,6.9,2,8.5,3.4c1.6,1.3,2.4,3.2,2.4,5.6  c0,2.6-1.1,4.9-3.3,6.8c-2.2,1.9-5.4,2.8-9.7,2.8c-3.9,0-7-0.8-9.3-2.4C449.6,194.9,448.1,192.8,447.4,190.1"/>
<path d="M497.9,189.1l7.6,1.3c-1,2.8-2.5,4.9-4.6,6.3c-2.1,1.4-4.7,2.2-7.9,2.2c-5,0-8.7-1.6-11.1-4.9c-1.9-2.6-2.8-5.9-2.8-9.9  c0-4.8,1.2-8.5,3.7-11.2c2.5-2.7,5.6-4,9.4-4c4.3,0,7.6,1.4,10.1,4.2c2.5,2.8,3.6,7.1,3.5,12.9h-19c0.1,2.3,0.7,4,1.8,5.3  c1.2,1.3,2.6,1.9,4.4,1.9c1.2,0,2.2-0.3,3-1C496.9,191.6,497.5,190.6,497.9,189.1 M498.4,181.4c-0.1-2.2-0.6-3.9-1.7-5  c-1.1-1.1-2.4-1.7-3.9-1.7c-1.7,0-3,0.6-4.1,1.8c-1.1,1.2-1.6,2.8-1.6,4.9H498.4z"/>
<rect x="512.6" y="158.7" width="7.6" height="39.6"/>
<rect x="527.6" y="180.1" width="14.9" height="7.6"/>
<path d="M545.4,185.4l7.8-0.8c0.5,2.6,1.4,4.5,2.8,5.8c1.4,1.2,3.4,1.8,5.8,1.8c2.6,0,4.5-0.5,5.8-1.6c1.3-1.1,2-2.4,2-3.8  c0-0.9-0.3-1.7-0.8-2.4c-0.5-0.7-1.5-1.2-2.9-1.7c-0.9-0.3-3.1-0.9-6.4-1.7c-4.3-1.1-7.3-2.4-9-3.9c-2.4-2.2-3.6-4.8-3.6-8  c0-2,0.6-3.9,1.7-5.7c1.1-1.8,2.8-3.1,4.9-4s4.7-1.4,7.8-1.4c5,0,8.7,1.1,11.2,3.3c2.5,2.2,3.8,5.1,4,8.7l-8,0.4  c-0.3-2-1.1-3.5-2.2-4.4s-2.8-1.3-5.1-1.3c-2.3,0-4.1,0.5-5.5,1.4c-0.8,0.6-1.3,1.4-1.3,2.5c0,0.9,0.4,1.7,1.2,2.4  c1,0.8,3.5,1.7,7.3,2.6c3.9,0.9,6.8,1.9,8.6,2.8c1.9,1,3.3,2.3,4.4,4c1.1,1.7,1.6,3.8,1.6,6.3c0,2.3-0.6,4.4-1.9,6.4  c-1.3,2-3,3.5-5.3,4.4c-2.3,1-5.2,1.4-8.6,1.4c-5,0-8.8-1.2-11.5-3.5C547.5,193.2,545.9,189.8,545.4,185.4"/>
<path d="M597.9,169.6v6h-5.2v11.6c0,2.3,0,3.7,0.1,4.1s0.3,0.7,0.7,1s0.8,0.4,1.3,0.4c0.7,0,1.7-0.2,3.1-0.7l0.6,5.9  c-1.8,0.8-3.8,1.1-6,1.1c-1.4,0-2.6-0.2-3.7-0.7c-1.1-0.5-1.9-1.1-2.4-1.8c-0.5-0.7-0.9-1.7-1.1-3c-0.2-0.9-0.2-2.7-0.2-5.3v-12.5  h-3.5v-6h3.5v-5.7l7.6-4.4v10.1H597.9"/>
<path d="M609.3,178.3l-6.9-1.2c0.8-2.8,2.1-4.8,4-6.2s4.7-2,8.4-2c3.4,0,5.9,0.4,7.6,1.2c1.7,0.8,2.8,1.8,3.5,3.1  c0.7,1.2,1,3.5,1,6.8l-0.1,8.9c0,2.5,0.1,4.4,0.4,5.6c0.2,1.2,0.7,2.5,1.4,3.8h-7.5c-0.2-0.5-0.4-1.3-0.7-2.2  c-0.1-0.4-0.2-0.7-0.3-0.9c-1.3,1.3-2.7,2.2-4.2,2.8c-1.5,0.6-3.1,0.9-4.7,0.9c-3,0-5.3-0.8-7-2.4c-1.7-1.6-2.6-3.6-2.6-6.1  c0-1.6,0.4-3.1,1.2-4.3c0.8-1.3,1.9-2.2,3.3-2.9c1.4-0.7,3.4-1.3,6-1.8c3.5-0.7,6-1.3,7.4-1.9v-0.8c0-1.5-0.4-2.5-1.1-3.1  c-0.7-0.6-2.1-0.9-4.1-0.9c-1.4,0-2.4,0.3-3.2,0.8C610.4,176.1,609.8,177,609.3,178.3 M619.5,184.5c-1,0.3-2.5,0.7-4.6,1.2  c-2.1,0.4-3.5,0.9-4.1,1.3c-1,0.7-1.5,1.6-1.5,2.7c0,1.1,0.4,2,1.2,2.8c0.8,0.8,1.8,1.2,3,1.2c1.4,0,2.7-0.4,3.9-1.4  c0.9-0.7,1.5-1.5,1.8-2.5c0.2-0.6,0.3-1.9,0.3-3.7V184.5z"/>
<path d="M661.2,198.2h-7V194c-1.2,1.6-2.6,2.9-4.1,3.7c-1.6,0.8-3.2,1.2-4.8,1.2c-3.3,0-6.1-1.3-8.5-4c-2.3-2.7-3.5-6.4-3.5-11.1  c0-4.9,1.1-8.6,3.4-11.1c2.3-2.5,5.2-3.8,8.7-3.8c3.2,0,6,1.3,8.3,4v-14.3h7.6V198.2 M640.9,183.3c0,3.1,0.4,5.3,1.3,6.6  c1.2,2,2.9,3,5.1,3c1.7,0,3.2-0.7,4.5-2.2s1.8-3.7,1.8-6.7c0-3.3-0.6-5.7-1.8-7.1c-1.2-1.4-2.7-2.2-4.6-2.2c-1.8,0-3.3,0.7-4.5,2.1  C641.5,178.3,640.9,180.4,640.9,183.3z"/>
<path d="M682.3,169.6v6h-5.2v11.6c0,2.3,0,3.7,0.1,4.1c0.1,0.4,0.3,0.7,0.7,1c0.4,0.3,0.8,0.4,1.3,0.4c0.7,0,1.7-0.2,3.1-0.7  l0.6,5.9c-1.8,0.8-3.8,1.1-6,1.1c-1.4,0-2.6-0.2-3.7-0.7c-1.1-0.5-1.9-1.1-2.4-1.8c-0.5-0.7-0.9-1.7-1.1-3c-0.2-0.9-0.2-2.7-0.2-5.3  v-12.5H666v-6h3.5v-5.7l7.6-4.4v10.1H682.3"/>
<path d="M33.1,139.1c-3.5,0-3.4,4.8-0.1,4.8h48.6c3.3,0,3.4-4.8-0.1-4.8H33.1"/>
<path d="M35.3,122.2c-3.6,0-3.4,4.8-0.1,4.8h43.6c3.3,0,3.4-4.8-0.1-4.8H35.3"/>
<path d="M30.1,129.2c-5.5,0-5.6,7.6-0.1,7.6h54.1c5.5,0,5.4-7.6-0.1-7.6H30.1"/>
<polyline points="35.1,146.1 78.6,146.1 90.9,213.7 70.3,198.2 56.8,213.7 43.3,198.2 22.6,213.6 35.1,146.1 "/>
<path d="M28.5,97c0,0,5.5,1.2,5.3,8.7c0,0,0.1,11.7-13.9,12c0,0-20.5,0.7-19.9-20.3c0,0-1.2-24.9,32.2-26c0,0,22.4-1.2,34.5,19.4  c0,0,8.1,14.1,7.7,29.5H39.9c1.4-3.5,1.8-11.5,1.8-11.5c-1-17.6-14.3-16.8-14.3-16.8c-10.5-0.6-11.1,8.3-11.1,8.3s-0.4,5.7,4.4,5.8  c0,0,3,0,3-2.5c0,0,0-1.8-2.2-1.8c0,0-1.4,0.1-1.6,0.8c0,0-0.6-6,6-6C25.8,96.5,27.1,96.5,28.5,97"/>
<rect x="126.6" y="0" width="7.1" height="249.3"/>
</svg>
