<svg xmlns="http://www.w3.org/2000/svg" xmlns:xlink="http://www.w3.org/1999/xlink" width="199px" height="72px" viewBox="0 0 199 72" version="1.1">
    <g id="Specs" stroke="none" stroke-width="1" fill="none" fill-rule="evenodd">
        <g id="Liip_Styleguide_Colors_Gradients" transform="translate(-321.000000, -291.000000)" fill="currentColor">
            <g id="Liip_Logo_Green" transform="translate(321.000000, 291.000000)">
                <path d="M125.352941,0.705882353 L139.941176,7.76470588 L107.235294,71.0588235 L92.6470588,64 L125.352941,0.705882353 Z M87.7058824,0.705882353 L102.058824,7.76470588 L69.3529412,71.0588235 L54.7647059,64 L87.7058824,0.705882353 Z M166.529412,45.8823529 L166.529412,68.9411765 L150.294118,68.9411765 L150.294118,4 L176.411765,4 C191,4 199,14.3529412 199,24.9411765 C199,35.7647059 191.235294,45.8823529 176.411765,45.8823529 L166.529412,45.8823529 Z M166.529412,18.3529412 L166.529412,31.5294118 L175.705882,31.5294118 C180.176471,31.5294118 182.764706,28.2352941 182.764706,24.9411765 C182.764706,21.6470588 180.176471,18.3529412 175.705882,18.3529412 L166.529412,18.3529412 Z M0.411764706,4 L16.6470588,4 L16.6470588,54.8235294 L44.4117647,54.8235294 L44.4117647,68.9411765 L0.411764706,68.9411765 L0.411764706,4 Z" id="Liip"/>
            </g>
        </g>
    </g>
</svg>
