<svg width="380" height="370" viewBox="0 0 380 370" fill="none" xmlns="http://www.w3.org/2000/svg">
<path d="M160.883 177.221C152.757 177.221 152.989 188.366 160.651 188.366H273.493C281.156 188.366 281.388 177.221 273.261 177.221H160.883Z" fill="black"/>
<path d="M165.992 137.981C157.633 137.981 158.098 149.126 165.76 149.126H266.993C274.655 149.126 274.887 137.981 266.761 137.981H165.992Z" fill="black"/>
<path d="M153.918 154.234C141.147 154.234 140.915 171.88 153.686 171.88H279.298C292.069 171.88 291.836 154.234 279.066 154.234H153.918Z" fill="black"/>
<path d="M165.527 193.474H266.528L295.087 350.432L247.257 314.443L215.912 350.432L184.567 314.443L136.504 350.199L165.527 193.474Z" fill="black"/>
<path d="M150.203 79.4701C150.203 79.4701 162.973 82.2563 162.509 99.6703C162.509 99.6703 162.741 126.836 130.235 127.533C130.235 127.533 82.6369 129.158 84.03 80.3988C84.03 80.3988 81.2438 22.5844 158.794 20.0303C158.794 20.0303 210.804 17.2441 238.898 65.0745C238.898 65.0745 257.705 97.8128 256.777 133.57H176.672C179.923 125.443 180.852 106.868 180.852 106.868C178.53 66.0033 147.649 67.8607 147.649 67.8607C123.27 66.4676 121.876 87.1322 121.876 87.1322C121.876 87.1322 120.948 100.367 132.093 100.599C132.093 100.599 139.058 100.599 139.058 94.7944C139.058 94.7944 139.058 90.615 133.95 90.615C133.95 90.615 130.699 90.8472 130.235 92.4725C130.235 92.4725 128.842 78.5413 144.166 78.5413C143.934 78.3091 146.953 78.3091 150.203 79.4701Z" fill="black"/>
</svg>
