<svg width="380" height="370" viewBox="0 0 380 370" fill="none" xmlns="http://www.w3.org/2000/svg">
<g clip-path="url(#clip0_61_22)">
<g filter="url(#filter0_d_61_22)">
<path d="M243.905 86.8872C219.867 62.8745 196.799 39.9532 190 14C183.201 39.8319 160.133 62.7532 136.095 86.8872C99.9147 122.906 59 163.777 59 225.143C59 297.423 117.64 356 190 356C262.36 356 321 297.423 321 225.143C321 163.777 279.964 122.906 243.905 86.8872ZM114.605 255.583C106.592 255.34 76.9685 204.283 131.967 149.951L168.389 189.609C169.603 190.821 169.603 192.762 168.389 193.974C168.268 194.096 168.268 194.096 168.146 194.217C159.405 203.07 122.497 240.181 117.883 253.036C116.912 255.704 115.455 255.583 114.605 255.583ZM190 322.891C165.111 322.891 144.957 302.76 144.957 277.898C144.957 266.498 149.449 256.311 156.127 248.185C164.261 238.24 190 210.347 190 210.347C190 210.347 215.253 238.726 223.752 248.064C231.158 256.189 235.164 266.862 235.043 277.898C235.043 302.76 214.889 322.891 190 322.891ZM276.2 249.883C275.229 251.945 273.044 255.583 270.008 255.704C264.666 255.947 264.181 253.157 260.174 247.336C251.554 234.602 176.524 156.257 162.44 141.098C150.057 127.757 160.741 118.419 165.597 113.447C171.789 107.262 189.757 89.3128 189.757 89.3128C189.757 89.3128 243.541 140.249 265.88 175.055C288.22 209.862 280.692 239.938 276.2 249.883Z" fill="white"/>
</g>
</g>
<defs>
<filter id="filter0_d_61_22" x="37.3" y="-6.7" width="305.4" height="385.4" filterUnits="userSpaceOnUse" color-interpolation-filters="sRGB">
<feFlood flood-opacity="0" result="BackgroundImageFix"/>
<feColorMatrix in="SourceAlpha" type="matrix" values="0 0 0 0 0 0 0 0 0 0 0 0 0 0 0 0 0 0 127 0" result="hardAlpha"/>
<feOffset dy="1"/>
<feGaussianBlur stdDeviation="10.85"/>
<feComposite in2="hardAlpha" operator="out"/>
<feColorMatrix type="matrix" values="0 0 0 0 0.0260871 0 0 0 0 0.0513066 0 0 0 0 0.0925748 0 0 0 0.52 0"/>
<feBlend mode="normal" in2="BackgroundImageFix" result="effect1_dropShadow_61_22"/>
<feBlend mode="normal" in="SourceGraphic" in2="effect1_dropShadow_61_22" result="shape"/>
</filter>
<clipPath id="clip0_61_22">
<rect width="380" height="370" fill="white"/>
</clipPath>
</defs>
</svg>
