<svg viewBox="0 0 70 50" xmlns="http://www.w3.org/2000/svg">
<rect x="22" y="6" width="9" height="39" rx="4.5" fill="currentColor" />
<path d="M40.6027 8.78591C41.8453 6.63359 44.5975 5.89615 46.7498 7.13879C48.9021 8.38143 49.6395 11.1336 48.3969 13.2859L44.3969 20.2141C43.1542 22.3664 40.4021 23.1039 38.2498 21.8612C36.0975 20.6186 35.36 17.8664 36.6027 15.7141L40.6027 8.78591Z" fill="currentColor" />
<path d="M36.6027 35.2859C35.36 33.1336 36.0975 30.3814 38.2498 29.1388C40.4021 27.8962 43.1542 28.6336 44.3969 30.7859L48.3969 37.7141C49.6395 39.8664 48.9021 42.6186 46.7498 43.8612C44.5975 45.1039 41.8453 44.3664 40.6027 42.2141L36.6027 35.2859Z" fill="currentColor" />
</svg>
